<svg height="512pt" viewBox="0 -69 512.00004 512" width="512pt" xmlns="http://www.w3.org/2000/svg"><path d="m261.300781 239.121094c-2.929687-2.929688-7.679687-2.929688-10.609375 0-2.925781 2.925781-2.925781 7.675781 0 10.605468 2.929688 2.929688 7.679688 2.929688 10.609375 0 2.925781-2.929687 2.925781-7.679687 0-10.605468zm0 0"/><path d="m312.761719 271.375h-5.941407v-.976562c0-4.140626-3.355468-7.5-7.5-7.5-4.144531 0-7.5 3.359374-7.5 7.5v1.65625c-7.9375 7.941406-16.359374 13.300781-28.320312 15.144531v-16.800781c0-4.140626-3.355469-7.5-7.5-7.5-4.140625 0-7.5 3.359374-7.5 7.5v16.800781c-10.109375-1.558594-19.4375-6.261719-26.808594-13.632813l-.015625-.015625v-3.152343c0-4.140626-3.359375-7.5-7.5-7.5-4.144531 0-7.5 3.359374-7.5 7.5v.972656h-5.945312c-4.140625 0-7.5 3.355468-7.5 7.5 0 4.140625 3.359375 7.5 7.5 7.5h5.945312v16.359375c0 4.140625 3.355469 7.5 7.5 7.5 4.140625 0 7.5-3.359375 7.5-7.5v-10.019531c8.070313 5.207031 17.203125 8.492187 26.824219 9.617187v12.351563c0 4.140624 3.355469 7.5 7.5 7.5s7.5-3.359376 7.5-7.5v-12.351563c10.21875-1.195313 19.890625-4.8125 28.320312-10.59375v10.996094c0 4.140625 3.355469 7.5 7.5 7.5 4.140626 0 7.5-3.359375 7.5-7.5v-16.355469h5.941407c4.144531 0 7.5-3.359375 7.5-7.5 0-4.144531-3.355469-7.5-7.5-7.5zm0 0"/><path d="m250.804688 185.925781c0-36.394531-29.609376-66-66-66-36.394532 0-66 29.605469-66 66 0 36.390625 29.605468 66 66 66 36.390624 0 66-29.609375 66-66zm-66 51c-28.121094 0-51-22.878906-51-51 0-28.121093 22.878906-51 51-51 28.121093 0 51 22.878907 51 51 0 28.121094-22.878907 51-51 51zm0 0"/><path d="m326.195312 121.925781c-35.839843 0-65 29.160157-65 65 0 35.839844 29.160157 65 65 65 35.839844 0 65-29.160156 65-65 0-35.839843-29.160156-65-65-65zm0 115c-27.570312 0-50-22.429687-50-50 0-27.570312 22.429688-50 50-50 27.570313 0 50 22.429688 50 50 0 27.570313-22.429687 50-50 50zm0 0"/><path d="m470.800781 243.949219h-.023437c-10.699219 0-20.910156 4.148437-28.488282 11.390625l-23.269531-13.445313c5.921875-26.523437 10.019531-39.460937 7.613281-60.796875-3.476562-30.804687-14.917968-64.355468-34.226562-94.75l27.953125-16.136718c3.179687-1.839844 4.5625-5.667969 3.269531-9.109376-6.273437-16.902343 6.238282-35.339843 24.589844-35.339843 16.472656.015625 29.152344 15.105469 25.722656 31.621093-.792968 3.738282 1.359375 7.46875 5 8.660157 10.726563 3.542969 18.058594 13.546875 18.058594 24.898437-.015625 14.335938-11.585938 26.257813-26.21875 26.289063-8.941406-.007813-17.171875-4.46875-22.011719-11.917969-2.199219-3.386719-6.632812-4.371094-10.039062-2.410156l-10.230469 5.898437c-3.640625 2.128907-4.78125 6.71875-2.738281 10.25 2.007812 3.5 6.550781 4.851563 10.238281 2.75l4.609375-2.660156c7.761719 8.320313 18.75 13.089844 30.152344 13.089844h.039062c22.453125 0 41.199219-18.257813 41.199219-41.289063 0-15.105468-8.398438-29.527344-22.5625-36.742187 1.273438-23.523438-17.527344-43.4375-41.1875-43.4375h-.050781c-25.808594 0-45.507813 23.6875-40.390625 49.371093l-23.886719 13.789063c-2.785156-3.808594-5.679687-7.527344-8.6875-11.125-33.816406-40.496094-76.164063-62.796875-119.234375-62.796875s-85.414062 22.300781-119.234375 62.792969c-3.007813 3.601562-5.902344 7.320312-8.6875 11.128906l-23.898437-13.792969c5.183593-25.53125-14.527344-49.367187-40.371094-49.367187h-.070313c-23.585937 0-42.441406 19.824219-41.179687 43.449219-13.894532 7.046874-22.558594 21.328124-22.558594 36.730468-.0117188 7.109375 1.839844 14.148438 5.351562 20.347656 7.289063 12.902344 21.082032 20.941407 35.847657 20.941407h.03125c11.410156 0 22.398437-4.769531 30.160156-13.089844l4.609375 2.660156c3.558594 2.058594 8.160156.832031 10.238281-2.75 2.070313-3.582031.839844-8.179687-2.738281-10.25-.011719 0-.011719 0-.011719 0l-10.21875-5.902343c-3.503906-1.996094-7.882812-.90625-10.039062 2.410156-4.839844 7.453125-13.070313 11.910156-22.011719 11.921875-14.675781-.03125-26.203125-11.992188-26.21875-26.289063 0-11.347656 7.324219-21.351562 18.058594-24.902344 3.640625-1.1875 5.789062-4.910156 5-8.660156-3.441406-16.644531 9.355468-31.59375 25.71875-31.628906 18.253906.039062 30.886718 18.3125 24.582031 35.359375-1.269531 3.441406.109375 7.261719 3.28125 9.101563l27.953125 16.136718c-18.636719 29.339844-30.617188 62.75-34.230469 94.757813-2.402343 21.324219 1.675781 34.199219 7.609375 60.792969l-23.273437 13.441406c-7.574219-7.238282-17.765625-11.390625-28.488281-11.390625h-.023438c-22.6875 0-41.21875 18.492187-41.1875 41.269531-.0195312 14.957031 8.28125 29.503906 22.558594 36.742188-1.257813 23.613281 17.570312 43.449218 41.183594 43.449218h.050781c26.757812 0 46.734375-25.398437 39.855469-51.730468l23.613281-13.628907c3.546875-2.050781 4.835937-6.632812 2.738281-10.25-2.003906-3.480469-6.527344-4.859375-10.230469-2.75-.007812.007813-.007812.007813-.007812.007813l-29 16.742187c-3.351563 1.929688-4.683594 6.050781-3.082031 9.578125 7.804687 17.289063-4.917969 37.03125-23.898438 37.03125-16.5-.015625-29.160156-15.171875-25.722656-31.609375.792968-3.75-1.359375-7.480469-5-8.679687-10.753906-3.539063-18.058594-13.554688-18.058594-24.902344.015625-14.296875 11.5625-26.246094 26.210938-26.277344 8.226562.007813 16.066406 3.910156 20.976562 10.4375 1.410156 1.871094 3.652344 2.992188 6.011719 2.992188 1.3125 0 2.601562-.351563 3.738281-1l24.460938-14.128906.8125 3.648437c2.234374 10.019531 10.960937 17.011719 21.214843 17.007813h.019531.128907c30.457031 0 55.238281 24.78125 55.238281 55.238281v.128906c-.03125 12.507813 7.324219 23.53125 18.730469 28.082031 20.214843 8.0625 41.5625 12.152344 63.453125 12.152344 21.894531 0 43.242187-4.089844 63.457031-12.152344 11.40625-4.550781 18.761719-15.574218 18.734375-28.082031l-.003906-.128906c0-30.457031 24.78125-55.238281 55.238281-55.238281h.109375.007812.015626c10.257812 0 18.980468-6.988282 21.21875-17.003907l.816406-3.65625 24.46875 14.132813c3.257812 1.867187 7.429687 1.105468 9.75-1.992188 4.910156-6.527344 12.75-10.429687 20.976562-10.429687 14.660156 0 26.179688 11.988281 26.210938 26.269531-.023438 11.425781-7.351563 21.378906-18.058594 24.902344-3.632812 1.1875-5.792969 4.917968-5 8.660156 3.433594 16.523438-9.257812 31.613281-25.722656 31.628906-18.90625 0-31.734375-19.683594-23.898438-37.03125 1.589844-3.527344.269532-7.648437-3.078125-9.578125l-29-16.742187c-3.652343-2.113282-8.214843-.773438-10.25 2.742187-2.054687 3.570313-.871093 8.152344 2.738281 10.238281 0 .011719 0 .011719.011719.011719l23.609375 13.628907c-6.921875 26.246093 13.085938 51.730468 39.847656 51.730468h.050782c23.652344 0 42.464844-19.890625 41.191406-43.449218 13.867188-7.039063 22.5625-21.289063 22.5625-36.742188 0-22.992188-18.691406-41.269531-41.199219-41.269531zm-77.375 18.949219h-59.882812c-4.144531 0-7.5 3.359374-7.5 7.5 0 4.144531 3.355469 7.5 7.5 7.5h16.578125c-16.382813 12.871093-26.933594 32.839843-26.933594 55.238281v.164062c.015625 6.316407-3.632812 11.855469-9.292969 14.113281-18.433593 7.355469-37.914062 11.085938-57.894531 11.085938s-39.457031-3.730469-57.894531-11.085938c-5.660157-2.257812-9.308594-7.796874-9.292969-14.132812v-.144531c0-22.398438-10.550781-42.367188-26.933594-55.238281h16.570313c4.140625 0 7.5-3.355469 7.5-7.5 0-4.140626-3.359375-7.5-7.5-7.5h-60.007813c-.003906 0-.007812 0-.007812 0-3.183594 0-5.886719-2.167969-6.582032-5.273438l-2.992187-13.414062c-.03125-.152344-.0625-.304688-.101563-.457032-7.175781-32.164062-10.59375-42.285156-8.484374-60.96875 4.382812-38.867187 21.878906-79.097656 48.003906-110.375 30.917968-37.019531 69.175781-57.410156 107.722656-57.410156s76.804688 20.390625 107.722656 57.410156c26.121094 31.277344 43.621094 71.503906 48.003906 110.367188 2.117188 18.746094-1.339843 28.957031-8.507812 61.046875-.023438.097656-.042969.195312-.066406.292969l-3.015625 13.507812c-.695313 3.105469-3.398438 5.273438-6.589844 5.273438h-.003906zm0 0"/></svg>