<svg height="512pt" viewBox="-10 0 512 512.00083" width="512pt" xmlns="http://www.w3.org/2000/svg"><path d="m490.511719 468.699219-17.289063-34.839844c.042969-.105469 7.703125-8.695313 1.867188-19.054687-14.160156-25.167969-34.640625-48.59375-59.285156-68.15625 73.269531-94.109376 56.101562-233.355469-44.035157-305.785157-3.382812-2.445312-8.09375-1.691406-10.539062 1.6875-2.445313 3.382813-1.691407 8.101563 1.691406 10.539063 93.390625 67.660156 108.972656 197.15625 40.796875 284.5-95.347656-67.226563-222.035156-66.011719-315.335938-.039063-27.230468-34.890625-41.984374-77.578125-41.984374-122.523437 0-149.878906 159.355468-246.128906 291.796874-177.195313 3.695313 1.914063 8.253907.484375 10.183594-3.21875 1.921875-3.695312.484375-8.253906-3.21875-10.175781-142.582031-74.195312-313.855468 29.492188-313.855468 190.589844 0 48.253906 15.808593 94.082031 44.992187 131.570312-24.613281 19.511719-45.074219 42.886719-59.242187 67.996094-5.980469 10.535156 1.894531 19.042969 1.914062 19.144531l-17.347656 34.960938c-5.019532 7.996093 2.339844 17.855469 12.25 16.121093l13.5625-2.378906 2.703125 20.078125c1.296875 9.644531 14.453125 12.828125 20.757812 5.324219.273438-.324219.515625-.667969.730469-1.03125l21-35.722656c11.324219 1.105468 19.664062-4.386719 22.730469-11.761719 9.289062-22.300781 25.882812-41.441406 47.300781-55.972656 31.316406 17.257812 66.65625 26.425781 103.410156 26.425781 36.691406 0 71.972656-9.136719 103.25-26.335938 21.855469 14.84375 38.429688 34.234376 47.507813 56.273438 3.574219 8.683594 13.53125 13.105469 22.941406 11.816406 21.914063 37.199219 20.71875 35.417969 21.46875 36.308594 6.296875 7.496094 19.457031 4.335938 20.757813-5.324219l2.703124-20.078125 13.5625 2.378906c9.898438 1.742188 17.277344-8.113281 12.253907-16.121093zm-446.769531 21.734375c-2.203126-11.253906-.371094-17.011719-6.234376-21.300782-6.160156-4.507812-12.503906-1.042968-19.027343-.445312l12.519531-25.234375c17.261719 13.105469 10.640625 8.078125 27.90625 21.1875zm372.886718-33.785156c-2.707031 0-5.222656-1.148438-5.84375-2.675782-16.972656-41.222656-54.835937-70.394531-97.164062-84.863281-3.945313-1.351563-8.230469.753906-9.578125 4.699219-1.351563 3.945312.753906 8.230468 4.699219 9.578125 8.933593 3.058593 17.429687 6.722656 25.386718 10.941406-54 26.597656-119.929687 27.734375-176.296875-.082031 37.714844-19.914063 82.628907-25.191406 122.832031-18.074219 4.105469.734375 8.019532-2.011719 8.746094-6.117187.722656-4.097657-2.011718-8.019532-6.121094-8.746094-79.558593-14.070313-171.597656 19.488281-201.867187 92.210937-1.054687 2.570313-7.132813 3.847657-10.597656 1.207031-41.015625-31.46875-41.84375-30.585937-40.625-32.714843 12.539062-22.230469 31.566406-44.542969 55.839843-63.753907 92.492188-73.46875 225.640626-74.734374 320.015626.042969 35.984374 28.503907 56.121093 62.484375 56.121093 64.695313 0 .566406-.433593 1.21875-1.1875 1.800781-41.554687 31.140625-39.265625 31.851563-44.359375 31.851563zm47.417969 10.355468c-6.542969-1.15625-12.902344 2.976563-13.75 9.277344l-1.90625 14.152344-14.960937-25.445313 27.800781-21.339843 12.421875 25.039062zm0 0"/><path d="m236.253906 154.878906v63.480469c0 21.425781 11.371094 33.722656 31.207032 33.722656 19.683593 0 31.4375-12.609375 31.4375-33.722656v-63.480469c0-21.113281-11.753907-33.710937-31.4375-33.710937-19.835938 0-31.207032 12.285156-31.207032 33.710937zm47.550782 0v63.480469c0 16.503906-8.734376 18.625-16.34375 18.625-8.371094 0-16.109376-2.261719-16.109376-18.625v-63.480469c0-16.363281 7.738282-18.617187 16.109376-18.617187 7.609374 0 16.34375 2.113281 16.34375 18.617187zm0 0"/><path d="m206.667969 154.878906v63.480469c0 37.917969 22.160156 59.65625 60.792969 59.65625 38.773437 0 61.023437-21.738281 61.023437-59.65625v-63.480469c0-37.90625-22.25-59.65625-61.023437-59.65625-38.632813 0-60.792969 21.75-60.792969 59.65625zm106.722656 0v63.480469c0 29.566406-15.457031 44.558594-45.929687 44.558594-30.320313 0-45.699219-14.992188-45.699219-44.558594v-63.480469c0-29.566406 15.378906-44.558594 45.699219-44.558594 30.472656 0 45.929687 14.992188 45.929687 44.558594zm0 0"/><path d="m130.144531 197.0625c3.367188-2.460938 4.101563-7.183594 1.644531-10.546875-2.460937-3.367187-7.179687-4.101563-10.546874-1.644531-19.394532 14.164062-41.375 30.21875-41.375 52.832031v22.074219c0 10.863281 12.132812 16.875 20.515624 16.875h81.003907c9.148437 0 16.875-9.5 16.875-20.742188 0-11.1875-7.570313-20.292968-16.875-20.292968h-55.238281c2.339843-5.605469 13.078124-13.050782 22.679687-19.710938 21.824219-15.136719 48.980469-33.976562 48.980469-66.941406 0-49.8125-62.203125-68.710938-97.148438-40.886719-11.5 9.15625-17.835937 22.140625-17.835937 36.5625 0 14.921875 7.644531 23.476563 20.972656 23.476563 14.953125 0 23.019531-9.515626 23.019531-18.46875 0-3.085938 0-12.476563 12.703125-12.476563 12.957031 0 13.613281 10.582031 13.613281 12.703125 0 5.140625-2.941406 10.488281-9.261718 16.828125-2.945313 2.953125-2.933594 7.730469.015625 10.671875 2.953125 2.941406 7.730469 2.933594 10.671875-.015625 9.199218-9.222656 13.671875-18.214844 13.671875-27.484375 0-35.789062-56.507813-38.566406-56.507813-.230469 0 .929688-2.4375 3.375-7.925781 3.375-3.28125 0-5.875 0-5.875-8.378906 0-22.289063 21.316406-34.320313 41.371094-34.320313 21.578125 0 43.421875 13.273438 43.421875 38.644532 0 25.0625-22.574219 40.71875-42.488282 54.535156-15.90625 11.03125-29.640624 20.558594-29.640624 34.203125v5.460937c0 4.167969 3.378906 7.546876 7.546874 7.546876h63.019532c.652344.417968 2.015625 2.328124 2.015625 5.195312 0 2.953125-1.441407 5.109375-2.144531 5.648438h-80.640626c-2.035156 0-4.695312-1.277344-5.421874-2.152344v-21.699219c0-14.945313 17.886718-28.007813 35.183593-40.640625zm0 0"/><path d="m353.28125 187.535156c-11.433594 0-20.167969 4.839844-20.167969 18.152344v19.09375c0 13.300781 8.734375 18.140625 20.167969 18.140625 11.292969 0 20.167969-4.839844 20.167969-18.140625v-19.09375c0-13.3125-8.875-18.152344-20.167969-18.152344zm6.722656 37.246094c0 4.4375-2.554687 6.449219-6.722656 6.449219s-6.589844-2.011719-6.589844-6.449219v-19.09375c0-4.4375 2.421875-6.457031 6.589844-6.457031s6.722656 2.019531 6.722656 6.457031zm0 0"/><path d="m407.191406 182.023438c-2.417968 0-4.570312 1.074218-5.644531 3.363281-49.609375 102.285156-47.863281 97.308593-47.863281 99.488281 0 3.359375 2.957031 7.125 7.53125 7.125 2.554687 0 5.109375-1.347656 6.046875-3.363281l47.324219-96.933594c.40625-.804687.539062-1.746094.539062-2.554687 0-4.300782-4.167969-7.125-7.933594-7.125zm0 0"/><path d="m394.824219 248.972656v19.097656c0 13.304688 8.734375 18.144532 20.164062 18.144532 11.292969 0 20.167969-4.839844 20.167969-18.144532v-19.097656c0-13.304687-8.875-18.144531-20.167969-18.144531-11.429687 0-20.164062 4.839844-20.164062 18.144531zm13.574219 0c0-4.429687 2.425781-6.453125 6.589843-6.453125 4.167969 0 6.722657 2.023438 6.722657 6.453125v19.097656c0 4.429688-2.554688 6.453126-6.722657 6.453126-4.164062 0-6.589843-2.023438-6.589843-6.453126zm0 0"/></svg>